<?xml version="1.0" encoding="UTF-8"?>
<svg id="Capa_1" data-name="Capa 1" xmlns="http://www.w3.org/2000/svg" viewBox="0 0 635 85">
  <defs>
    <style>
      .cls-1 {
        fill: #fff;
      }

      .cls-2 {
        fill: #bc955b;
      }

      .cls-3 {
        fill: #dec9a3;
      }
    </style>
  </defs>
  <g id="secretarias">
    <g>
      <g>
        <g>
          <path class="cls-2" d="m185.31,74.83h2.57s0-1.11,0-1.11h-2.57s0,1.11,0,1.11Zm43.44-1.99s-.06,0-.09,0c-.46.02-.81.42-.78.87.02.46.42.81.87.78l15.55-.83-15.55-.83Zm-84.11,0l-15.55.83,15.55.83s.06,0,.09,0c.46-.02.81-.42.78-.87-.02-.46-.42-.81-.87-.78Zm75.95.67c.72-.42.74-1.06.74-1.28,0-1.29-1.32-1.77-2.46-1.77-1.13,0-2.44.49-2.44,1.77,0,.21.02.85.73,1.28-.95.47-.96,1.25-.96,1.46,0,.83.65,1.9,2.67,1.9,2.03,0,2.69-1.07,2.69-1.9,0-.21-.01-.99-.97-1.46Zm-1.72-1.99c.57,0,1,.27,1,.78,0,.37-.27.76-1,.76s-.98-.39-.98-.76c0-.46.35-.78.98-.78Zm0,4.3c-.87,0-1.18-.45-1.18-.89,0-.66.62-.88,1.18-.88s1.2.22,1.2.88-.64.89-1.2.89Zm-62.16-3.52c0-.93-.72-1.83-2.36-1.83-.48,0-1.79.09-2.52,1.15l1.07.67c.19-.26.57-.62,1.32-.62.97,0,1.02.58,1.02.77,0,.68-.45.94-3.11,3.4v.93s4.8,0,4.8,0v-1.17s-2.73,0-2.73,0c1.79-1.65,2.52-2.11,2.52-3.3Zm24.97,0c0-.93-.72-1.83-2.36-1.83-.48,0-1.79.09-2.52,1.15l1.07.67c.19-.26.57-.62,1.32-.62.97,0,1.02.58,1.02.77,0,.68-.45.94-3.11,3.4v.93s4.8,0,4.8,0v-1.17s-2.73,0-2.73,0c1.79-1.65,2.52-2.11,2.52-3.3Zm14.12,0c0-.93-.72-1.83-2.36-1.83-.48,0-1.79.09-2.52,1.15l1.07.67c.19-.26.57-.62,1.32-.62.97,0,1.02.58,1.02.77,0,.68-.45.94-3.11,3.4v.93s4.8,0,4.8,0v-1.17s-2.73,0-2.73,0c1.79-1.65,2.52-2.11,2.52-3.3Zm16.89,0c0-.93-.72-1.83-2.36-1.83-.48,0-1.79.09-2.52,1.15l1.07.67c.19-.26.57-.62,1.32-.62.97,0,1.02.58,1.02.77,0,.68-.45.94-3.11,3.4v.93s4.8,0,4.8,0v-1.17s-2.73,0-2.73,0c1.79-1.65,2.52-2.11,2.52-3.3Zm-49.74-1.83c-1.31,0-2.72.89-2.72,3.21,0,2.32,1.41,3.2,2.72,3.2s2.72-.89,2.72-3.2-1.42-3.21-2.72-3.21Zm0,5.2c-.75,0-1.23-.61-1.23-1.99s.47-1.99,1.23-1.99c.76,0,1.24.62,1.24,1.99s-.48,1.99-1.24,1.99Zm39.09-5.2c-1.31,0-2.72.89-2.72,3.21s1.41,3.2,2.72,3.2c1.31,0,2.72-.89,2.72-3.2s-1.42-3.21-2.72-3.21Zm0,5.2c-.75,0-1.23-.61-1.23-1.99s.47-1.99,1.23-1.99,1.24.62,1.24,1.99c0,1.37-.48,1.99-1.24,1.99Zm-28.45-3.36c0-.93-.72-1.83-2.36-1.83-.48,0-1.79.09-2.52,1.15l1.07.67c.19-.26.57-.62,1.32-.62.97,0,1.02.58,1.02.77,0,.68-.45.94-3.11,3.4v.93s4.8,0,4.8,0v-1.17s-2.73,0-2.73,0c1.79-1.65,2.52-2.11,2.52-3.3Z"/>
          <path class="cls-1" d="m165.92,53.84c-2.63,0-5.63,1.7-5.63,5.26,0,3.25,2.64,5.26,5.63,5.26,2.63,0,5.63-1.69,5.63-5.26,0-3.19-2.59-5.26-5.63-5.26Zm0,8.14c-2.19,0-2.73-1.94-2.73-2.89,0-1.19.71-2.89,2.73-2.89,2.04,0,2.73,1.72,2.73,2.89,0,.94-.53,2.89-2.73,2.89Zm-76.98-7.94h-4.63s0,10.11,0,10.11h2.86s0-2.64,0-2.64h1.76c2.89,0,4.5-1.54,4.5-3.73,0-2.5-1.94-3.74-4.5-3.74Zm-.17,5.21h-1.59v-2.96h1.59c1.07,0,1.78.44,1.78,1.49,0,.53-.2,1.47-1.78,1.47Zm49.07.84h4.5s0-2.14,0-2.14h-4.5v-1.7h5.11s0-2.21,0-2.21h-7.94s0,10.11,0,10.11h8.13s0-2.21,0-2.21h-5.29v-1.85Zm-9.94-6.05l-3.47,5.84-3.56-5.84h-2.36s0,10.11,0,10.11h2.65s0-5.21,0-5.21l2.59,4.22h1.27s2.61-4.37,2.61-4.37l.03,5.36h2.63s-.03-10.11-.03-10.11h-2.36Zm-16.98,10.11h2.86s0-10.11,0-10.11h-2.86s0,10.11,0,10.11Zm149.91-5.28c1.35-.72,1.37-1.88,1.37-2.19,0-1.47-1.15-2.64-3.96-2.64h-5.18s0,10.11,0,10.11h5.47c3.48,0,4.17-1.61,4.17-2.77,0-.39-.03-1.86-1.86-2.5Zm-4.94-2.77h1.97c1.1,0,1.45.41,1.45.97s-.34.98-1.45.98h-1.97v-1.95Zm2.4,5.98h-2.4v-2.05h2.4c.71,0,1.5.17,1.5,1.03,0,.85-.79,1.03-1.5,1.03Zm11.44-8.04h-2.86s0,10.11,0,10.11h7.7s0-2.27,0-2.27h-4.83v-7.84Zm13.6-.2c-2.63,0-5.63,1.7-5.63,5.26,0,3.25,2.64,5.26,5.63,5.26,2.63,0,5.63-1.69,5.63-5.26,0-3.19-2.59-5.26-5.63-5.26Zm0,8.14c-2.2,0-2.73-1.95-2.73-2.89,0-1.17.69-2.89,2.73-2.89,2.04,0,2.73,1.72,2.73,2.89,0,.94-.53,2.89-2.73,2.89Zm-39.86-1.89h4.5s0-2.14,0-2.14h-4.5v-1.7h5.11s0-2.21,0-2.21h-7.94s0,10.11,0,10.11h8.13s0-2.21,0-2.21h-5.29v-1.85Zm-45.56-6.05h-2.86s0,10.11,0,10.11h7.7s0-2.27,0-2.27h-4.83v-7.84Zm-12.44,6.05h4.5s0-2.14,0-2.14h-4.5v-1.7h5.11s0-2.21,0-2.21h-7.94s0,10.11,0,10.11h8.13s0-2.21,0-2.21h-5.29v-1.85Zm47.71-.53c0,.87-.17,1.49-.51,1.86-.34.38-.81.56-1.4.56s-1.07-.19-1.41-.56c-.34-.38-.51-1-.51-1.86v-5.52s-2.86,0-2.86,0v5.6c0,1.5.42,2.66,1.26,3.48.84.82,2.01,1.23,3.5,1.23s2.66-.41,3.5-1.23c.84-.82,1.26-1.98,1.26-3.48v-5.6s-2.82,0-2.82,0v5.52Zm-15.09-5.52h-4.63s0,10.11,0,10.11h2.86s0-2.64,0-2.64h1.76c2.89,0,4.5-1.54,4.5-3.73,0-2.5-1.94-3.74-4.5-3.74Zm-.17,5.21h-1.59v-2.96h1.59c1.07,0,1.78.44,1.78,1.49,0,.53-.2,1.47-1.78,1.47Zm-111.28-1.47c0-.77-.18-1.44-.55-2-.84-1.29-2.39-1.74-3.95-1.74h-4.63s0,10.11,0,10.11h2.86s0-2.69,0-2.69h1.56s1.84,2.69,1.84,2.69h3.07s-2.19-3.18-2.19-3.18c2.07-.98,1.99-2.96,1.99-3.19Zm-4.67,1.47h-1.59v-2.96h1.59c1.07,0,1.78.44,1.78,1.49,0,.53-.2,1.47-1.78,1.47Zm54.57-1.47c0-.77-.18-1.44-.55-2-.84-1.29-2.39-1.74-3.95-1.74h-4.63s0,10.11,0,10.11h2.86s0-2.69,0-2.69h1.56s1.84,2.69,1.84,2.69h3.07s-2.19-3.18-2.19-3.18c2.07-.98,1.99-2.96,1.99-3.19Zm-4.67,1.47h-1.59v-2.96h1.59c1.07,0,1.78.44,1.78,1.49,0,.53-.2,1.47-1.78,1.47Z"/>
          <g>
            <path class="cls-2" d="m87.73,44.21c.15-.98.34-3.56.34-6.47v-6.59c0-2.08-.08-5.38-.57-6.02-.34-.57-1.89-1.25-3.07-1.63l.49-2.31h12.91s.49,2.31.49,2.31l-3.29,1.17c-.15.98-.34,3.56-.34,6.47v1.78s11.28.15,11.28.15v-1.93c0-2.08-.08-5.38-.57-6.02-.34-.57-1.89-1.25-3.07-1.63l.49-2.31h12.91s.49,2.31.49,2.31l-3.29,1.17c-.15.98-.34,3.56-.34,6.47v6.59c0,2.08.08,5.38.57,6.02.34.57,1.89,1.25,3.07,1.63l-.49,2.31h-12.91s-.49-2.31-.49-2.31l3.29-1.17c.15-.98.34-3.56.34-6.47v-1.32s-11.28.23-11.28.23v1.1c0,2.08.08,5.38.57,6.02.34.57,1.89,1.25,3.07,1.63l-.49,2.31h-12.91s-.49-2.31-.49-2.31l3.29-1.17Z"/>
            <path class="cls-2" d="m122.86,44.21c.15-.98.34-3.56.34-6.47v-6.59c0-2.08-.08-5.38-.57-6.02-.34-.57-1.89-1.25-3.07-1.63l.49-2.31h12.91s.49,2.31.49,2.31l-3.29,1.17c-.15.98-.34,3.56-.34,6.47v6.59c0,2.08.08,5.38.57,6.02.34.57,1.89,1.25,3.07,1.63l-.49,2.31h-12.91s-.49-2.31-.49-2.31l3.29-1.17Z"/>
            <path class="cls-2" d="m148.48,43.98c.68.57,3.75,1.17,6.21.23,2.84-1.55,4.47-5.03,4.47-9.99,0-4.13-1.51-7.34-3.03-8.55-1.25-.79-3.1-1.17-5.03-1.17-1.06,0-2.2.08-3.03.23-.15.98-.34,3.56-.34,6.43v6.59c0,2.08.08,5.38.57,6.02.04.08.11.15.19.23h0Zm-7.72.23c.15-.98.34-3.56.34-6.47v-6.59c0-2.08-.08-5.38-.57-6.02-.34-.57-1.89-1.25-3.07-1.63l.49-2.31h5.9c1.4,0,5.64-.23,7.61-.23,10.94,0,14.65,6.09,14.65,13.25,0,9.24-6.36,13.82-13.51,13.82-2.42,0-6.02-.34-8.48-.34h-6.17s-.49-2.31-.49-2.31l3.29-1.17Z"/>
            <path class="cls-2" d="m186.22,36.26c-1.06-3.14-2.31-6.51-3.6-9.77-1.17,2.91-2.35,6.32-3.44,9.61l7.04.15Zm-5.68,11.43h-11.92s-.49-2.31-.49-2.31l3.14-1.51c2.38-4.88,5.15-11.89,7.8-18.66l1.25-3.67c1.02-.26,4.96-.76,7.04-.68.3,1.21.72,2.8,1.36,4.35,2.57,6.51,5.41,14.16,7.46,18.85l3.52,1.32-.49,2.31h-13.06s-.49-2.31-.49-2.31l3.33-1.17c-.45-1.32-.98-2.88-1.59-4.62l-9.39.23c-.45,1.4-.87,2.8-1.25,4.05l4.32,1.51-.53,2.31Z"/>
            <path class="cls-2" d="m205.98,44.21c.15-.98.34-3.56.34-6.47v-6.59c0-2.08-.08-5.38-.57-6.02-.34-.57-1.89-1.25-3.07-1.63l.49-2.31h12.91s.49,2.31.49,2.31l-3.29,1.17c-.15.98-.34,3.56-.34,6.47v6.59c0,2.08.08,5.38.57,6.02.04.08.15.19.26.26.64.42,2.08.49,3.37.49,1.21,0,2.54-.11,3.44-.23l1.32-4.96c1.06-.04,3.37.04,4.32.23.08,2.61.08,5.38,0,8.14h-23.05s-.49-2.31-.49-2.31l3.29-1.17Z"/>
            <path class="cls-2" d="m248.38,43.79c-.04-2.04-.23-4.77-.61-5.3-.53-.57-1.97-1.14-3.18-1.55l.49-2.35h12.61s.49,2.35.49,2.35l-2.99,1.1c-.15,1.02-.34,3.6-.34,6.51v.64c-2.38,1.7-6.62,3.18-10.94,3.18-9.08,0-14.72-5.15-14.72-13.55,0-8.33,7.27-14.31,15.75-14.31,3.86,0,7.31.98,9.92,2.35l.68,1.14c-.38,2.01-1.21,5.6-1.51,6.85-.98,0-3.22-.04-4.13-.19-.42-2.38-1.02-4.35-1.44-5.19-1.06-.76-2.73-1.36-4.92-1.36-1.55,0-3.18.45-4.09,1.06-1.74,2.2-2.95,5.22-2.95,9.12,0,6.28,3.22,10.07,8.33,10.07,1.44,0,2.5-.19,3.56-.57h0Z"/>
            <path class="cls-2" d="m280.02,42.88c.83-1.48,1.63-4.28,1.63-7.72,0-6.59-1.97-10.56-7-10.56-1.63,0-3.18.42-4.24,1.21-1.36,1.97-2.31,5.03-2.31,8.63,0,6.13,2.73,9.92,7.31,9.92,1.97,0,3.63-.53,4.62-1.48h0Zm-19.19-7.65c0-8.74,6.85-14.72,14.72-14.72s13.4,5,13.4,13.14c0,8.67-6.47,14.72-14.42,14.72-8.1,0-13.7-5-13.7-13.13h0Z"/>
          </g>
        </g>
        <g>
          <path class="cls-3" d="m57.46,5.65v14.51s-8.27,8.27-8.27,8.27v-15.5s7.57-7.57,7.57-7.57c.26-.26.7-.08.7.29h0Z"/>
          <polygon class="cls-3" points="47.73 14.39 47.73 29.89 39.46 38.16 39.46 22.66 47.73 14.39"/>
          <polygon class="cls-2" points="36.54 22.66 36.54 38.16 28.27 29.89 28.27 14.39 36.54 22.66"/>
          <g>
            <path class="cls-2" d="m26.81,12.93v15.5s-8.27-8.27-8.27-8.27V5.65c0-.36.44-.55.7-.29l7.57,7.57Z"/>
            <path class="cls-3" d="m26.81,52.87v15.5s-7.57,7.57-7.57,7.57c-.26.26-.7.07-.7-.29v-14.52s8.27-8.27,8.27-8.27Z"/>
          </g>
          <polygon class="cls-3" points="36.54 43.14 36.54 58.64 28.27 66.91 28.27 51.41 36.54 43.14"/>
          <polygon class="cls-2" points="47.73 51.41 47.73 66.91 39.46 58.64 39.46 43.15 47.73 51.41"/>
          <g>
            <path class="cls-2" d="m57.46,61.14v14.51c0,.36-.44.55-.7.29l-7.57-7.57v-15.5s8.27,8.27,8.27,8.27Z"/>
            <path class="cls-3" d="m73,60.11h-14.51s-8.27-8.27-8.27-8.27h15.5s7.57,7.57,7.57,7.57c.26.26.08.7-.29.7h0Z"/>
          </g>
          <polygon class="cls-3" points="64.26 50.38 48.76 50.38 40.5 42.11 55.99 42.11 64.26 50.38"/>
          <polygon class="cls-2" points="64.26 30.93 55.99 39.19 40.5 39.19 48.76 30.93 64.26 30.93"/>
          <g>
            <path class="cls-2" d="m73.29,21.89l-7.57,7.57h-15.5s8.27-8.27,8.27-8.27h14.51c.36,0,.55.44.29.7h0Z"/>
            <path class="cls-3" d="m25.77,29.46h-15.5s-7.57-7.57-7.57-7.57c-.26-.26-.07-.7.29-.7h14.51s8.27,8.27,8.27,8.27Z"/>
          </g>
          <polygon class="cls-3" points="35.5 39.19 20 39.19 11.74 30.93 27.24 30.93 35.5 39.19"/>
          <polygon class="cls-2" points="35.5 42.11 27.24 50.38 11.74 50.38 20 42.11 35.5 42.11"/>
          <path class="cls-2" d="m25.77,51.84l-8.27,8.27H2.99c-.36,0-.55-.44-.29-.7l7.57-7.57h15.5Z"/>
        </g>
      </g>
      <path class="cls-2" d="m310.66,5.29c-.7,0-1.27.57-1.27,1.27v69.08c0,.7.57,1.26,1.27,1.26s1.27-.57,1.27-1.26V6.56c0-.7-.57-1.27-1.27-1.27Z"/>
    </g>
  </g>
  <g>
    <g>
      <path class="cls-2" d="m332.57,45.34c.16-1.01.27-3.65.27-6.64v-7.11c0-2.17.04-5.55-.39-5.98-.5-.5-2.14-1.13-3.34-1.52l.51-2.37h10.87c4.93,0,8.85-.12,12.08-.35.43.54.97,1.36,1.24,1.86-.31,1.9-1.05,5.36-1.36,6.72-.89.04-3.11-.04-4.08-.23l-1.05-4.7c-1.09-.12-2.68-.16-4.08-.16-1.2,0-2.33.04-3.34.08-.12,1.24-.27,3.96-.27,6.95v2.02l8.23-.47.78,1.01c-.19,1.01-.39,2.21-.58,3.22l-8.43-.35v1.71c0,2.25-.08,5.51.43,6.02.62.58,2.56.7,4,.7,1.36,0,2.8-.16,3.8-.35l1.36-4.74c1.09-.08,3.46.04,4.39.19.12,2.6.12,5.32,0,8.04h-24l-.51-2.37,3.46-1.2Z"/>
      <path class="cls-2" d="m361.52,45.34c.16-1.01.27-3.65.27-6.64v-7.11c0-2.17,0-5.48-.35-5.94-.39-.5-2.1-1.13-3.38-1.55l.5-2.37h5.98c1.44,0,5.78-.23,7.8-.23,11.22,0,15.03,6.25,15.03,13.59,0,9.47-6.52,14.17-13.86,14.17-2.49,0-6.17-.35-8.7-.35h-6.25l-.5-2.37,3.46-1.2Zm7.42-.35c.5.66,3.96,1.4,6.72.35,2.91-1.59,4.58-5.16,4.58-10.25,0-4.23-1.55-7.53-3.11-8.78-1.28-.82-3.19-1.2-5.17-1.2-1.09,0-2.25.08-3.11.23-.16,1.01-.27,3.65-.27,6.6v7.11c0,2.17,0,5.48.35,5.94Z"/>
      <path class="cls-2" d="m404.77,49.49c-8.35,0-12.12-4.54-12.12-13.47v-4.12c0-2.1,0-5.55-.47-6.17-.39-.58-2.06-1.2-3.26-1.63l.5-2.37h13.55l.51,2.37-3.53,1.2c-.16,1.01-.31,3.65-.31,6.6v4.46c0,5.36,1.47,8.7,6.56,8.7,2.21,0,4.12-.74,5.09-1.55.93-2.95.85-7.14.85-10.33s-.04-6.95-.31-7.61c-.47-.39-2.49-1.05-3.84-1.48l.51-2.37h11.76l.51,2.37-3.65,1.24c-.16,2.49-.23,5.86-.23,12,0,8.04-4.7,12.15-12.12,12.15Z"/>
      <path class="cls-2" d="m441.92,44.4c.27-.78.85-2.64,1.48-4.89.97-.04,3.57.08,4.58.19.12,1.67.16,4.31.16,5.82l-.58,1.2c-2.33,1.52-6.1,2.76-10.33,2.76-8.74,0-14.13-5.2-14.13-13.71s6.6-14.64,14.8-14.64c3.92,0,7.26,1.05,10.02,2.41l.66,1.16c-.39,2.1-1.05,5.09-1.51,7.03-.93.04-3.22-.04-4.27-.19-.43-2.21-.97-4.39-1.28-5.4-.78-.47-2.33-.82-3.92-.82-1.86,0-3.53.39-4.43.93-1.71,2.06-2.8,5.09-2.8,9.05,0,5.94,2.68,9.75,7.73,9.75,1.86,0,3.14-.27,3.84-.66Z"/>
      <path class="cls-2" d="m462.45,48.91h-11.46l-.5-2.37,2.99-1.2c2.41-5.82,5.05-12.97,7.46-19.73l1.09-3.88c2.45-.19,6.37-.39,8.62-.39.31,1.2.85,2.72,1.4,4.27,2.41,6.83,5.32,14.72,7.3,19.76l3.03,1.17-.5,2.37h-13.2l-.51-2.37,3.69-1.17c-.47-1.36-1.01-2.99-1.59-4.78l-9.71.23c-.47,1.52-.89,3.07-1.32,4.54l3.77,1.17-.54,2.37Zm6.6-11.73c-1.24-3.65-2.64-7.65-3.92-11.18-1.09,3.22-2.29,7.11-3.46,11.03l7.38.16Z"/>
      <path class="cls-2" d="m502.36,44.4c.27-.78.85-2.64,1.47-4.89.97-.04,3.57.08,4.58.19.12,1.67.16,4.31.16,5.82l-.58,1.2c-2.33,1.52-6.09,2.76-10.33,2.76-8.74,0-14.13-5.2-14.13-13.71s6.6-14.64,14.8-14.64c3.92,0,7.26,1.05,10.02,2.41l.66,1.16c-.39,2.1-1.05,5.09-1.51,7.03-.93.04-3.23-.04-4.27-.19-.43-2.21-.97-4.39-1.28-5.4-.78-.47-2.33-.82-3.92-.82-1.86,0-3.53.39-4.43.93-1.71,2.06-2.8,5.09-2.8,9.05,0,5.94,2.68,9.75,7.73,9.75,1.86,0,3.14-.27,3.85-.66Z"/>
      <path class="cls-2" d="m516.33,45.34c.16-1.01.27-3.65.27-6.64v-7.11c0-2.17,0-5.48-.35-5.94-.39-.5-2.1-1.13-3.38-1.55l.51-2.37h13.24l.51,2.37-3.46,1.2c-.16,1.01-.27,3.65-.27,6.64v7.11c0,2.17,0,5.48.35,5.94.39.5,2.1,1.13,3.38,1.55l-.51,2.37h-13.24l-.51-2.37,3.46-1.2Z"/>
      <path class="cls-2" d="m531,36.13c0-8.89,5.98-14.99,14.8-14.99,7.92,0,13.4,5.17,13.4,13.55s-5.94,14.8-14.44,14.8-13.75-5.09-13.75-13.36Zm19.73-26.06c.93,1.24,1.9,3.34,2.29,4.89l-.82,1.4-13.51,3.11-.7-.35-.5-2.06c3.84-2.45,8.89-4.97,13.24-6.99Zm-.7,33.74c.78-1.09,2.02-4.08,2.02-8.15,0-6.56-1.82-10.25-7.11-10.25-1.83,0-3.77.62-4.78,1.4-1.32,1.94-2.02,5.05-2.02,8.77,0,5.98,2.29,9.63,7.07,9.63,2.06,0,3.88-.58,4.81-1.4Z"/>
      <path class="cls-2" d="m584.69,49.06l-3.61-4.81c-2.95-3.92-6.99-8.7-10.25-12.46.12,7.3.39,12.31.74,13.09.51.62,2.68,1.16,4.54,1.67l-.51,2.37h-12.04l-.51-2.37,3.42-1.2c.16-1.01.31-4.47.31-10.21,0-5.32-.08-8.7-.58-9.36-.66-.58-1.94-1.2-3.15-1.67l.51-2.37c2.83,0,6.25-.08,8.85-.16,2.45,4.08,8.81,11.8,13.39,17.28-.08-7.46-.43-12.27-.85-13.09-.39-.54-2.52-1.2-4-1.67l.5-2.37h12l.51,2.37-3.42,1.24c-.43,2.17-.66,11.03-.66,23.22l-5.2.5Z"/>
    </g>
    <g>
      <path class="cls-3" d="m329.9,68.72l.56-1.18c.79.71,2.14,1.23,3.51,1.23,1.84,0,2.63-.71,2.63-1.64,0-2.6-6.44-.96-6.44-4.9,0-1.64,1.28-3.04,4.07-3.04,1.25,0,2.54.33,3.42.94l-.5,1.21c-.93-.59-1.97-.87-2.91-.87-1.8,0-2.58.76-2.58,1.69,0,2.6,6.44.97,6.44,4.87,0,1.62-1.31,3.02-4.11,3.02-1.62,0-3.22-.55-4.07-1.34Z"/>
      <path class="cls-3" d="m348.02,68.62v1.32h-7.71v-10.63h7.5v1.32h-5.98v3.26h5.33v1.29h-5.33v3.43h6.19Z"/>
      <path class="cls-3" d="m349.57,64.62c0-3.14,2.4-5.43,5.63-5.43,1.64,0,3.07.56,4.04,1.66l-.99.96c-.82-.86-1.82-1.26-2.99-1.26-2.4,0-4.17,1.73-4.17,4.08s1.77,4.08,4.17,4.08c1.17,0,2.17-.41,2.99-1.28l.99.96c-.97,1.09-2.4,1.67-4.05,1.67-3.22,0-5.62-2.29-5.62-5.43Z"/>
      <path class="cls-3" d="m368.53,69.94l-2.29-3.26c-.21.01-.44.03-.67.03h-2.63v3.23h-1.52v-10.63h4.14c2.76,0,4.43,1.4,4.43,3.7,0,1.64-.85,2.82-2.34,3.35l2.52,3.57h-1.66Zm-.05-6.92c0-1.52-1.02-2.38-2.96-2.38h-2.58v4.78h2.58c1.94,0,2.96-.88,2.96-2.4Z"/>
      <path class="cls-3" d="m380.18,68.62v1.32h-7.71v-10.63h7.5v1.32h-5.98v3.26h5.33v1.29h-5.33v3.43h6.19Z"/>
      <path class="cls-3" d="m384.75,60.63h-3.65v-1.32h8.79v1.32h-3.64v9.31h-1.5v-9.31Z"/>
      <path class="cls-3" d="m397.8,67.28h-5.65l-1.17,2.66h-1.56l4.81-10.63h1.5l4.83,10.63h-1.59l-1.17-2.66Zm-.53-1.21l-2.29-5.21-2.29,5.21h4.58Z"/>
      <path class="cls-3" d="m409.25,69.94l-2.29-3.26c-.21.01-.44.03-.67.03h-2.63v3.23h-1.52v-10.63h4.14c2.76,0,4.43,1.4,4.43,3.7,0,1.64-.85,2.82-2.34,3.35l2.52,3.57h-1.65Zm-.05-6.92c0-1.52-1.02-2.38-2.96-2.38h-2.58v4.78h2.58c1.94,0,2.96-.88,2.96-2.4Z"/>
      <path class="cls-3" d="m414.87,56.47h1.85l-2.55,1.97h-1.37l2.06-1.97Zm-1.69,2.84h1.52v10.63h-1.52v-10.63Z"/>
      <path class="cls-3" d="m424.67,67.28h-5.65l-1.17,2.66h-1.56l4.81-10.63h1.5l4.83,10.63h-1.59l-1.17-2.66Zm-.53-1.21l-2.29-5.21-2.29,5.21h4.58Z"/>
      <path class="cls-3" d="m433.1,59.31h4.48c3.42,0,5.74,2.15,5.74,5.31s-2.32,5.31-5.74,5.31h-4.48v-10.63Zm4.39,9.31c2.63,0,4.31-1.61,4.31-3.99s-1.68-3.99-4.31-3.99h-2.87v7.99h2.87Z"/>
      <path class="cls-3" d="m453.36,68.62v1.32h-7.71v-10.63h7.5v1.32h-5.98v3.26h5.33v1.29h-5.33v3.43h6.19Z"/>
      <path class="cls-3" d="m467.62,68.62v1.32h-7.71v-10.63h7.5v1.32h-5.98v3.26h5.33v1.29h-5.33v3.43h6.19Z"/>
      <path class="cls-3" d="m470.09,59.31h4.48c3.42,0,5.74,2.15,5.74,5.31s-2.32,5.31-5.74,5.31h-4.48v-10.63Zm4.39,9.31c2.63,0,4.31-1.61,4.31-3.99s-1.68-3.99-4.31-3.99h-2.87v7.99h2.87Z"/>
      <path class="cls-3" d="m482.54,65.35v-6.04h1.52v5.98c0,2.35,1.08,3.42,2.99,3.42s3.01-1.06,3.01-3.42v-5.98h1.47v6.04c0,3.08-1.68,4.71-4.49,4.71s-4.49-1.62-4.49-4.71Z"/>
      <path class="cls-3" d="m493.78,64.62c0-3.14,2.4-5.43,5.63-5.43,1.64,0,3.07.56,4.04,1.66l-.99.96c-.82-.86-1.82-1.26-2.99-1.26-2.4,0-4.17,1.73-4.17,4.08s1.77,4.08,4.17,4.08c1.17,0,2.17-.41,2.99-1.28l.99.96c-.97,1.09-2.4,1.67-4.05,1.67-3.22,0-5.62-2.29-5.62-5.43Z"/>
      <path class="cls-3" d="m512.14,67.28h-5.65l-1.17,2.66h-1.56l4.81-10.63h1.5l4.83,10.63h-1.6l-1.17-2.66Zm-.53-1.21l-2.29-5.21-2.29,5.21h4.59Z"/>
      <path class="cls-3" d="m515.47,64.62c0-3.14,2.4-5.43,5.63-5.43,1.64,0,3.07.56,4.04,1.66l-.99.96c-.82-.86-1.82-1.26-2.99-1.26-2.4,0-4.17,1.73-4.17,4.08s1.78,4.08,4.17,4.08c1.17,0,2.17-.41,2.99-1.28l.99.96c-.97,1.09-2.4,1.67-4.05,1.67-3.22,0-5.61-2.29-5.61-5.43Z"/>
      <path class="cls-3" d="m527.32,59.31h1.52v10.63h-1.52v-10.63Z"/>
      <path class="cls-3" d="m531.16,64.62c0-3.11,2.4-5.43,5.66-5.43s5.63,2.31,5.63,5.43-2.4,5.43-5.63,5.43-5.66-2.32-5.66-5.43Zm9.78,0c0-2.35-1.76-4.08-4.11-4.08s-4.14,1.73-4.14,4.08,1.76,4.08,4.14,4.08,4.11-1.73,4.11-4.08Zm-3.19-8.15h1.85l-2.55,1.97h-1.36l2.06-1.97Z"/>
      <path class="cls-3" d="m553.93,59.31v10.63h-1.25l-6.37-7.92v7.92h-1.52v-10.63h1.24l6.38,7.92v-7.92h1.52Z"/>
      <path class="cls-3" d="m569.79,63.02c0,2.31-1.67,3.7-4.43,3.7h-2.63v3.22h-1.52v-10.63h4.14c2.76,0,4.43,1.4,4.43,3.7Zm-1.52,0c0-1.52-1.02-2.38-2.96-2.38h-2.58v4.77h2.58c1.94,0,2.96-.87,2.96-2.38Z"/>
      <path class="cls-3" d="m571.96,65.35v-6.04h1.52v5.98c0,2.35,1.08,3.42,2.99,3.42s3.01-1.06,3.01-3.42v-5.98h1.47v6.04c0,3.08-1.69,4.71-4.49,4.71s-4.49-1.62-4.49-4.71Zm5.44-8.88h1.85l-2.55,1.97h-1.36l2.07-1.97Z"/>
      <path class="cls-3" d="m593.21,67.07c0,1.82-1.38,2.87-4.07,2.87h-5.07v-10.63h4.77c2.44,0,3.81,1.03,3.81,2.75,0,1.15-.59,1.96-1.43,2.37,1.2.33,1.99,1.23,1.99,2.64Zm-7.62-6.53v3.4h3.11c1.55,0,2.43-.58,2.43-1.7s-.88-1.7-2.43-1.7h-3.11Zm6.09,6.41c0-1.23-.91-1.78-2.6-1.78h-3.49v3.54h3.49c1.69,0,2.6-.53,2.6-1.76Z"/>
      <path class="cls-3" d="m595.57,59.31h1.52v9.31h5.75v1.32h-7.27v-10.63Z"/>
      <path class="cls-3" d="m604.59,59.31h1.52v10.63h-1.52v-10.63Z"/>
      <path class="cls-3" d="m608.43,64.62c0-3.14,2.4-5.43,5.63-5.43,1.64,0,3.07.56,4.04,1.66l-.99.96c-.82-.86-1.82-1.26-2.99-1.26-2.4,0-4.17,1.73-4.17,4.08s1.78,4.08,4.17,4.08c1.17,0,2.17-.41,2.99-1.28l.99.96c-.97,1.09-2.4,1.67-4.05,1.67-3.22,0-5.61-2.29-5.61-5.43Z"/>
      <path class="cls-3" d="m626.79,67.28h-5.64l-1.17,2.66h-1.56l4.81-10.63h1.5l4.82,10.63h-1.59l-1.17-2.66Zm-.53-1.21l-2.29-5.21-2.29,5.21h4.59Z"/>
    </g>
  </g>
</svg>